<svg width="65" height="37" viewBox="0 0 65 37" fill="none" xmlns="http://www.w3.org/2000/svg">
<path d="M14.35 36.8C11.6167 36.8 9.23333 36.2667 7.2 35.2C5.16667 34.1 3.58333 32.5333 2.45 30.5C1.35 28.4333 0.8 25.9667 0.8 23.1C0.8 18.7667 1.61667 14.8667 3.25 11.4C4.88333 7.9 7.13333 5.16667 10 3.2C12.9 1.2 16.15 0.199999 19.75 0.199999C22.4833 0.199999 24.8667 0.749999 26.9 1.85C28.9333 2.91667 30.5 4.48333 31.6 6.55C32.7333 8.58333 33.3 11.0333 33.3 13.9C33.3 18.2333 32.4833 22.15 30.85 25.65C29.2167 29.1167 26.95 31.85 24.05 33.85C21.1833 35.8167 17.95 36.8 14.35 36.8ZM15.55 27.35C16.8167 27.35 17.9 26.6167 18.8 25.15C19.7 23.6833 20.3667 21.9333 20.8 19.9C21.2667 17.8333 21.5 15.9333 21.5 14.2C21.5 11.1667 20.5167 9.65 18.55 9.65C17.2833 9.65 16.2 10.3833 15.3 11.85C14.4 13.3167 13.7167 15.0833 13.25 17.15C12.8167 19.1833 12.6 21.0667 12.6 22.8C12.6 25.8333 13.5833 27.35 15.55 27.35ZM50.3309 26.85H61.6809L59.8309 36H31.7809L33.2309 28.75L47.8809 17.5C49.4142 16.3 50.4642 15.3 51.0309 14.5C51.6309 13.7 51.9309 12.8833 51.9309 12.05C51.9309 11.2833 51.6309 10.6667 51.0309 10.2C50.4642 9.73333 49.6975 9.5 48.7309 9.5C47.6975 9.5 46.6975 9.8 45.7309 10.4C44.7975 10.9667 43.9475 11.7833 43.1809 12.85L35.3309 8C36.6975 5.63333 38.7309 3.75 41.4309 2.35C44.1309 0.916665 47.1642 0.199999 50.5309 0.199999C53.0975 0.199999 55.4142 0.633332 57.4809 1.5C59.5475 2.36666 61.1642 3.56667 62.3309 5.1C63.4975 6.6 64.0809 8.3 64.0809 10.2C64.0809 12.4333 63.4642 14.5 62.2309 16.4C60.9975 18.3 58.8309 20.4167 55.7309 22.75L50.3309 26.85Z" fill="#F6F6F6"/>
</svg>
