<svg width="65" height="37" viewBox="0 0 65 37" fill="none" xmlns="http://www.w3.org/2000/svg">
<path d="M14.35 36.8C11.6167 36.8 9.23333 36.2667 7.2 35.2C5.16667 34.1 3.58333 32.5333 2.45 30.5C1.35 28.4333 0.8 25.9667 0.8 23.1C0.8 18.7667 1.61667 14.8667 3.25 11.4C4.88333 7.9 7.13333 5.16667 10 3.2C12.9 1.2 16.15 0.199999 19.75 0.199999C22.4833 0.199999 24.8667 0.749999 26.9 1.85C28.9333 2.91667 30.5 4.48333 31.6 6.55C32.7333 8.58333 33.3 11.0333 33.3 13.9C33.3 18.2333 32.4833 22.15 30.85 25.65C29.2167 29.1167 26.95 31.85 24.05 33.85C21.1833 35.8167 17.95 36.8 14.35 36.8ZM15.55 27.35C16.8167 27.35 17.9 26.6167 18.8 25.15C19.7 23.6833 20.3667 21.9333 20.8 19.9C21.2667 17.8333 21.5 15.9333 21.5 14.2C21.5 11.1667 20.5167 9.65 18.55 9.65C17.2833 9.65 16.2 10.3833 15.3 11.85C14.4 13.3167 13.7167 15.0833 13.25 17.15C12.8167 19.1833 12.6 21.0667 12.6 22.8C12.6 25.8333 13.5833 27.35 15.55 27.35ZM63.5309 8.25L55.5309 15.15C57.6309 15.8167 59.2642 16.9 60.4309 18.4C61.5975 19.9 62.1809 21.6667 62.1809 23.7C62.1809 26.1667 61.3975 28.4 59.8309 30.4C58.2975 32.4 56.1809 33.9667 53.4809 35.1C50.7809 36.2333 47.7642 36.8 44.4309 36.8C41.8642 36.8 39.4142 36.5 37.0809 35.9C34.7809 35.3 32.7309 34.3833 30.9309 33.15L36.2809 24.95C37.6142 25.7833 39.0642 26.4167 40.6309 26.85C42.1975 27.2833 43.7309 27.5 45.2309 27.5C46.8642 27.5 48.1142 27.25 48.9809 26.75C49.8475 26.2167 50.2809 25.4667 50.2809 24.5C50.2809 23.1 49.1142 22.4 46.7809 22.4H41.9309L43.3809 15.15L49.4809 9.9H37.0809L38.8809 0.999998H64.9809L63.5309 8.25Z" fill="#F6F6F6"/>
</svg>
