<svg width="66" height="37" viewBox="0 0 66 37" fill="none" xmlns="http://www.w3.org/2000/svg">
<path d="M14.35 36.8C11.6167 36.8 9.23333 36.2667 7.2 35.2C5.16667 34.1 3.58333 32.5333 2.45 30.5C1.35 28.4333 0.8 25.9667 0.8 23.1C0.8 18.7667 1.61667 14.8667 3.25 11.4C4.88333 7.9 7.13333 5.16667 10 3.2C12.9 1.2 16.15 0.199999 19.75 0.199999C22.4833 0.199999 24.8667 0.749999 26.9 1.85C28.9333 2.91667 30.5 4.48333 31.6 6.55C32.7333 8.58333 33.3 11.0333 33.3 13.9C33.3 18.2333 32.4833 22.15 30.85 25.65C29.2167 29.1167 26.95 31.85 24.05 33.85C21.1833 35.8167 17.95 36.8 14.35 36.8ZM15.55 27.35C16.8167 27.35 17.9 26.6167 18.8 25.15C19.7 23.6833 20.3667 21.9333 20.8 19.9C21.2667 17.8333 21.5 15.9333 21.5 14.2C21.5 11.1667 20.5167 9.65 18.55 9.65C17.2833 9.65 16.2 10.3833 15.3 11.85C14.4 13.3167 13.7167 15.0833 13.25 17.15C12.8167 19.1833 12.6 21.0667 12.6 22.8C12.6 25.8333 13.5833 27.35 15.55 27.35ZM50.2691 9.9L49.3191 13.35H50.2191C54.4191 13.35 57.6358 14.1833 59.8691 15.85C62.1358 17.5167 63.2691 19.9667 63.2691 23.2C63.2691 25.9667 62.5025 28.3833 60.9691 30.45C59.4358 32.5167 57.3191 34.1 54.6191 35.2C51.9525 36.2667 48.9191 36.8 45.5191 36.8C42.9525 36.8 40.5025 36.5 38.1691 35.9C35.8691 35.3 33.8191 34.3833 32.0191 33.15L37.3691 24.95C38.7025 25.7833 40.1525 26.4167 41.7191 26.85C43.2858 27.2833 44.8191 27.5 46.3191 27.5C47.9525 27.5 49.2025 27.25 50.0691 26.75C50.9358 26.2167 51.3691 25.4833 51.3691 24.55C51.3691 23.7833 51.0358 23.2167 50.3691 22.85C49.7025 22.45 48.5858 22.25 47.0191 22.25H36.3691L42.3691 0.999998H65.6191L63.8191 9.9H50.2691Z" fill="#F6F6F6"/>
</svg>
