<svg width="137" height="74" viewBox="0 0 137 74" fill="none" xmlns="http://www.w3.org/2000/svg">
<path d="M27.7 73.6C22.2333 73.6 17.4667 72.5333 13.4 70.4C9.33333 68.2 6.16667 65.0667 3.9 61C1.7 56.8667 0.6 51.9333 0.6 46.2C0.6 37.5333 2.23333 29.7333 5.5 22.8C8.76667 15.8 13.2667 10.3333 19 6.4C24.8 2.4 31.3 0.399998 38.5 0.399998C43.9667 0.399998 48.7333 1.5 52.8 3.7C56.8667 5.83333 60 8.96666 62.2 13.1C64.4667 17.1667 65.6 22.0667 65.6 27.8C65.6 36.4667 63.9667 44.3 60.7 51.3C57.4333 58.2333 52.9 63.7 47.1 67.7C41.3667 71.6333 34.9 73.6 27.7 73.6ZM30.1 54.7C32.6333 54.7 34.8 53.2333 36.6 50.3C38.4 47.3667 39.7333 43.8667 40.6 39.8C41.5333 35.6667 42 31.8667 42 28.4C42 22.3333 40.0333 19.3 36.1 19.3C33.5667 19.3 31.4 20.7667 29.6 23.7C27.8 26.6333 26.4333 30.1667 25.5 34.3C24.6333 38.3667 24.2 42.1333 24.2 45.6C24.2 51.6667 26.1667 54.7 30.1 54.7ZM108.438 26.7C112.238 26.7 115.805 27.5 119.138 29.1C122.472 30.6333 125.172 32.9333 127.238 36C129.305 39.0667 130.338 42.7 130.338 46.9C130.338 52.2333 129.005 56.9333 126.338 61C123.738 65 120.105 68.1 115.438 70.3C110.772 72.5 105.472 73.6 99.5383 73.6C93.6049 73.6 88.3716 72.5333 83.8383 70.4C79.3716 68.2 75.8716 65 73.3383 60.8C70.8049 56.5333 69.5383 51.3333 69.5383 45.2C69.5383 37.9333 71.1716 30.8667 74.4383 24C77.7716 17.1333 82.8049 11.5 89.5383 7.1C96.3383 2.63333 104.705 0.399998 114.638 0.399998C119.038 0.399998 123.205 0.899997 127.138 1.9C131.072 2.83333 134.238 4.16666 136.638 5.9L125.938 22.1C122.605 19.8333 118.405 18.7 113.338 18.7C104.872 18.7 99.1049 22.5667 96.0383 30.3C99.4383 27.9 103.572 26.7 108.438 26.7ZM99.4383 57.3C101.638 57.3 103.472 56.5667 104.938 55.1C106.472 53.6333 107.238 51.7 107.238 49.3C107.238 47.3667 106.638 45.8333 105.438 44.7C104.305 43.5667 102.705 43 100.638 43C98.3716 43 96.5049 43.7333 95.0383 45.2C93.5716 46.6 92.8383 48.4667 92.8383 50.8C92.8383 52.7333 93.4049 54.3 94.5383 55.5C95.7383 56.7 97.3716 57.3 99.4383 57.3Z" fill="#F6F6F6"/>
</svg>
