<svg width="137" height="74" viewBox="0 0 137 74" fill="none" xmlns="http://www.w3.org/2000/svg">
<path d="M27.7 73.6C22.2333 73.6 17.4667 72.5333 13.4 70.4C9.33333 68.2 6.16667 65.0667 3.9 61C1.7 56.8667 0.6 51.9333 0.6 46.2C0.6 37.5333 2.23333 29.7333 5.5 22.8C8.76667 15.8 13.2667 10.3333 19 6.4C24.8 2.4 31.3 0.399998 38.5 0.399998C43.9667 0.399998 48.7333 1.5 52.8 3.7C56.8667 5.83333 60 8.96666 62.2 13.1C64.4667 17.1667 65.6 22.0667 65.6 27.8C65.6 36.4667 63.9667 44.3 60.7 51.3C57.4333 58.2333 52.9 63.7 47.1 67.7C41.3667 71.6333 34.9 73.6 27.7 73.6ZM30.1 54.7C32.6333 54.7 34.8 53.2333 36.6 50.3C38.4 47.3667 39.7333 43.8667 40.6 39.8C41.5333 35.6667 42 31.8667 42 28.4C42 22.3333 40.0333 19.3 36.1 19.3C33.5667 19.3 31.4 20.7667 29.6 23.7C27.8 26.6333 26.4333 30.1667 25.5 34.3C24.6333 38.3667 24.2 42.1333 24.2 45.6C24.2 51.6667 26.1667 54.7 30.1 54.7ZM136.738 2L133.838 16.5L100.238 72H73.6383L105.438 20.3H92.6383L90.6383 30.5H71.1383L76.8383 2H136.738Z" fill="#F6F6F6"/>
</svg>
