<svg width="134" height="74" viewBox="0 0 134 74" fill="none" xmlns="http://www.w3.org/2000/svg">
<path d="M27.7 73.6C22.2333 73.6 17.4667 72.5333 13.4 70.4C9.33333 68.2 6.16667 65.0667 3.9 61C1.7 56.8667 0.6 51.9333 0.6 46.2C0.6 37.5333 2.23333 29.7333 5.5 22.8C8.76667 15.8 13.2667 10.3333 19 6.4C24.8 2.4 31.3 0.399998 38.5 0.399998C43.9667 0.399998 48.7333 1.5 52.8 3.7C56.8667 5.83333 60 8.96666 62.2 13.1C64.4667 17.1667 65.6 22.0667 65.6 27.8C65.6 36.4667 63.9667 44.3 60.7 51.3C57.4333 58.2333 52.9 63.7 47.1 67.7C41.3667 71.6333 34.9 73.6 27.7 73.6ZM30.1 54.7C32.6333 54.7 34.8 53.2333 36.6 50.3C38.4 47.3667 39.7333 43.8667 40.6 39.8C41.5333 35.6667 42 31.8667 42 28.4C42 22.3333 40.0333 19.3 36.1 19.3C33.5667 19.3 31.4 20.7667 29.6 23.7C27.8 26.6333 26.4333 30.1667 25.5 34.3C24.6333 38.3667 24.2 42.1333 24.2 45.6C24.2 51.6667 26.1667 54.7 30.1 54.7ZM123.538 36.5C127.938 39.9667 130.138 44.3 130.138 49.5C130.138 54.4333 128.772 58.7333 126.038 62.4C123.305 66 119.505 68.7667 114.638 70.7C109.772 72.6333 104.205 73.6 97.9383 73.6C91.9383 73.6 86.6049 72.7667 81.9383 71.1C77.3383 69.3667 73.7716 66.9667 71.2383 63.9C68.7049 60.7667 67.4383 57.1667 67.4383 53.1C67.4383 48.7 68.5716 44.8667 70.8383 41.6C73.1049 38.2667 76.2716 35.6333 80.3383 33.7C77.2049 30.7 75.6383 27.1 75.6383 22.9C75.6383 18.3 76.9049 14.3 79.4383 10.9C81.9716 7.5 85.4716 4.9 89.9383 3.1C94.4716 1.3 99.6049 0.399998 105.338 0.399998C110.872 0.399998 115.772 1.2 120.038 2.8C124.305 4.33333 127.605 6.56666 129.938 9.5C132.338 12.3667 133.538 15.6667 133.538 19.4C133.538 23.1333 132.672 26.4667 130.938 29.4C129.205 32.2667 126.738 34.6333 123.538 36.5ZM105.038 16.3C103.305 16.3 101.872 16.9 100.738 18.1C99.6049 19.3 99.0383 20.9333 99.0383 23C99.0383 24.6667 99.5049 25.9667 100.438 26.9C101.438 27.8333 102.705 28.3 104.238 28.3C105.972 28.3 107.405 27.7 108.538 26.5C109.672 25.3 110.238 23.6667 110.238 21.6C110.238 19.9333 109.738 18.6333 108.738 17.7C107.805 16.7667 106.572 16.3 105.038 16.3ZM98.2383 57.7C100.638 57.7 102.605 57 104.138 55.6C105.672 54.1333 106.438 52.2 106.438 49.8C106.438 47.7333 105.772 46.1 104.438 44.9C103.172 43.7 101.438 43.1 99.2383 43.1C96.8383 43.1 94.8716 43.8333 93.3383 45.3C91.8049 46.7 91.0383 48.6 91.0383 51C91.0383 53.0667 91.7049 54.7 93.0383 55.9C94.4383 57.1 96.1716 57.7 98.2383 57.7Z" fill="#F6F6F6"/>
</svg>
