<svg width="133" height="74" viewBox="0 0 133 74" fill="none" xmlns="http://www.w3.org/2000/svg">
<path d="M27.7 73.6C22.2333 73.6 17.4667 72.5333 13.4 70.4C9.33333 68.2 6.16667 65.0667 3.9 61C1.7 56.8667 0.6 51.9333 0.6 46.2C0.6 37.5333 2.23333 29.7333 5.5 22.8C8.76667 15.8 13.2667 10.3333 19 6.4C24.8 2.4 31.3 0.399998 38.5 0.399998C43.9667 0.399998 48.7333 1.5 52.8 3.7C56.8667 5.83333 60 8.96666 62.2 13.1C64.4667 17.1667 65.6 22.0667 65.6 27.8C65.6 36.4667 63.9667 44.3 60.7 51.3C57.4333 58.2333 52.9 63.7 47.1 67.7C41.3667 71.6333 34.9 73.6 27.7 73.6ZM30.1 54.7C32.6333 54.7 34.8 53.2333 36.6 50.3C38.4 47.3667 39.7333 43.8667 40.6 39.8C41.5333 35.6667 42 31.8667 42 28.4C42 22.3333 40.0333 19.3 36.1 19.3C33.5667 19.3 31.4 20.7667 29.6 23.7C27.8 26.6333 26.4333 30.1667 25.5 34.3C24.6333 38.3667 24.2 42.1333 24.2 45.6C24.2 51.6667 26.1667 54.7 30.1 54.7ZM102.138 0.399998C108.072 0.399998 113.272 1.5 117.738 3.7C122.272 5.83333 125.805 9.03333 128.338 13.3C130.872 17.5 132.138 22.6667 132.138 28.8C132.138 36.0667 130.472 43.1333 127.138 50C123.872 56.8667 118.838 62.5333 112.038 67C105.305 71.4 96.9716 73.6 87.0383 73.6C82.6383 73.6 78.4716 73.1 74.5383 72.1C70.6049 71.1667 67.4383 69.8333 65.0383 68.1L75.7383 51.9C79.0716 54.1667 83.2716 55.3 88.3383 55.3C96.8716 55.3 102.638 51.4667 105.638 43.8C102.305 46.1333 98.5049 47.3 94.2383 47.3C90.1049 47.3 86.3049 46.5333 82.8383 45C79.3716 43.4 76.5716 41.1 74.4383 38.1C72.3716 35.0333 71.3383 31.3667 71.3383 27.1C71.3383 21.7667 72.6383 17.1 75.2383 13.1C77.9049 9.03333 81.5716 5.9 86.2383 3.7C90.9049 1.5 96.2049 0.399998 102.138 0.399998ZM94.4383 24.7C94.4383 26.6333 95.0049 28.1667 96.1383 29.3C97.3383 30.4333 98.9716 31 101.038 31C103.305 31 105.172 30.3 106.638 28.9C108.105 27.4333 108.838 25.5333 108.838 23.2C108.838 21.2667 108.238 19.7 107.038 18.5C105.905 17.3 104.305 16.7 102.238 16.7C100.038 16.7 98.1716 17.4333 96.6383 18.9C95.1716 20.3667 94.4383 22.3 94.4383 24.7Z" fill="#F6F6F6"/>
</svg>
