<svg width="106" height="74" viewBox="0 0 106 74" fill="none" xmlns="http://www.w3.org/2000/svg">
<path d="M39.6 2L25.6 72H2L12.4 19.8H0.4L4 2H39.6ZM67.4969 73.6C62.0302 73.6 57.2635 72.5333 53.1969 70.4C49.1302 68.2 45.9635 65.0667 43.6969 61C41.4969 56.8667 40.3969 51.9333 40.3969 46.2C40.3969 37.5333 42.0302 29.7333 45.2969 22.8C48.5635 15.8 53.0635 10.3333 58.7969 6.4C64.5969 2.4 71.0969 0.399998 78.2969 0.399998C83.7635 0.399998 88.5302 1.5 92.5969 3.7C96.6635 5.83333 99.7969 8.96666 101.997 13.1C104.264 17.1667 105.397 22.0667 105.397 27.8C105.397 36.4667 103.764 44.3 100.497 51.3C97.2302 58.2333 92.6969 63.7 86.8969 67.7C81.1635 71.6333 74.6969 73.6 67.4969 73.6ZM69.8969 54.7C72.4302 54.7 74.5969 53.2333 76.3969 50.3C78.1969 47.3667 79.5302 43.8667 80.3969 39.8C81.3302 35.6667 81.7969 31.8667 81.7969 28.4C81.7969 22.3333 79.8302 19.3 75.8969 19.3C73.3635 19.3 71.1969 20.7667 69.3969 23.7C67.5969 26.6333 66.2302 30.1667 65.2969 34.3C64.4302 38.3667 63.9969 42.1333 63.9969 45.6C63.9969 51.6667 65.9635 54.7 69.8969 54.7Z" fill="#F6F6F6"/>
</svg>
