<svg width="77" height="77" fill="none" xmlns="http://www.w3.org/2000/svg"><g clip-path="url(#clip0)"><path d="M76.508 13.219a1.02 1.02 0 00-.982-.045l-7.74 3.81-2.98-6.05 8.552-4.21a1.02 1.02 0 00.335-1.566 14.13 14.13 0 00-.884-.968c-5.587-5.587-14.645-5.587-20.232 0a14.306 14.306 0 00-4.109 11.634l-9.43 9.43L18.154 4.398a1.02 1.02 0 00-.55-.284L2.762 1.586a1.02 1.02 0 00-1.177 1.177l2.529 14.842c.035.208.134.4.283.55l20.858 20.884-9.438 9.437C7.97 47.634.925 53.314.082 61.162c-.062.587-.089 1.177-.079 1.766a1.02 1.02 0 001.47.899l7.741-3.811 2.98 6.05-8.553 4.21a1.02 1.02 0 00-.335 1.566c.27.326.567.651.884.968 5.587 5.587 14.645 5.587 20.232 0a14.305 14.305 0 004.109-11.634l9.422-9.422 17.155 17.189a9.716 9.716 0 006.912 2.879h.003a9.72 9.72 0 006.912-2.874c.002-.003.004-.011.007-.014 3.812-3.82 3.808-10.008-.01-13.824L51.753 37.955l9.429-9.43c.502.054 1.007.081 1.511.082 7.894.006 14.299-6.387 14.305-14.28 0-.085 0-.17-.002-.254a1.021 1.021 0 00-.489-.854zM8.845 15.15L56.307 62.7l-2.27 2.27L6.561 17.434l2.283-2.282zm48.904 46.107l-47.462-47.55 3.421-3.421 47.55 47.463-3.509 3.508zm4.951-4.95L15.15 8.843l2.283-2.282 47.538 47.475-2.27 2.27zM3.838 3.838l11.478 1.955-9.522 9.522L3.838 3.84zM22.98 71.367c-4.74 4.73-12.397 4.79-17.21.135l8.24-4.056a1.02 1.02 0 00.464-1.366l-3.88-7.88a1.02 1.02 0 00-1.366-.465l-7.103 3.497a12.143 12.143 0 013.507-7.212c4.79-4.79 12.557-4.79 17.348 0 4.79 4.79 4.79 12.557 0 17.347zm5.083-12.609a14.295 14.295 0 00-9.828-9.815l8.46-8.46 9.816 9.827-8.448 8.448zm41.695 3.263a7.682 7.682 0 01-2.265 5.47c-.003.003-.005.018-.007.02a7.695 7.695 0 01-5.463 2.27h-.003a7.691 7.691 0 01-5.47-2.28l-1.072-1.08 10.936-10.94 1.075 1.071a7.68 7.68 0 012.269 5.469zM50.31 36.51l-9.828-9.815 8.454-8.454a14.296 14.296 0 009.828 9.815l-8.455 8.454zm21.057-13.532c-4.79 4.786-12.553 4.782-17.339-.008-4.785-4.79-4.782-12.553.009-17.339C58.77.902 66.422.842 71.23 5.497l-8.24 4.057a1.02 1.02 0 00-.465 1.366l3.88 7.88c.25.506.861.714 1.367.465l7.102-3.497a12.143 12.143 0 01-3.507 7.212z" fill="#232323"/></g><defs><clipPath id="clip0"><path fill="#fff" d="M0 0h77v77H0z"/></clipPath></defs></svg>