<svg width="77" height="77" fill="none" xmlns="http://www.w3.org/2000/svg"><path d="M57.129 1.243v2.486h4.456l-25.57 25.57L23.6 16.87 7.821 32.649l1.743 1.758L23.6 20.387 36.014 32.8l27.33-27.313v4.44h2.485V1.244h-8.7z" fill="#232323"/><path d="M74.514 73.271V18.628H62.1v54.643h-2.486V26.086H47.2v47.2h-2.485V43.471h-12.43v29.8H29.8V36.014H17.386v37.257H14.9V55.885H2.486v17.386H0v2.486h77v-2.486h-2.486zm-62.085 0H4.972v-14.9h7.457v14.9zm14.9 0h-7.457V38.5h7.457V73.27zm14.9.015H34.77V45.957h7.458v27.33zm14.9 0H49.67V28.572h7.458v44.714zm14.914-.015h-7.457V21.114h7.457v52.157z" fill="#232323"/></svg>