<svg width="58" height="78" fill="none" xmlns="http://www.w3.org/2000/svg"><path d="M43.139 72.482h-29.22a1.108 1.108 0 01-1.107-1.108V56.606a1.108 1.108 0 011.108-1.108h29.219a1.108 1.108 0 011.108 1.108v14.768a1.108 1.108 0 01-1.108 1.108zm-28.111-2.216H42.03V57.714H15.028v12.552z" fill="#232323"/><path d="M48.06 77.563H8.999a1.108 1.108 0 01-1.108-1.108v-5.081a1.108 1.108 0 011.108-1.108H48.06a1.108 1.108 0 011.108 1.108v5.081a1.108 1.108 0 01-1.108 1.108zm-37.954-2.216h36.847v-2.865H10.106v2.865zM28.528 43.203c-11.108 0-20.145-14.318-20.145-31.912A49.156 49.156 0 019.48.875 1.108 1.108 0 0110.563 0h35.93a1.108 1.108 0 011.082.873 49.152 49.152 0 011.098 10.416c0 17.597-9.037 31.914-20.145 31.914zM11.464 2.216a47.254 47.254 0 00-.866 9.072c0 16.375 8.043 29.695 17.93 29.695 9.885 0 17.928-13.323 17.928-29.695a47.253 47.253 0 00-.864-9.072H11.464z" fill="#232323"/><path d="M25.805 52.892h-.085a1.108 1.108 0 01-1.02-1.189 18.616 18.616 0 00-2.058-10.126 1.108 1.108 0 111.96-1.034 20.844 20.844 0 012.307 11.33 1.108 1.108 0 01-1.104 1.019zM31.252 52.892a1.108 1.108 0 01-1.108-1.022 20.843 20.843 0 012.306-11.33 1.108 1.108 0 111.961 1.034A18.615 18.615 0 0032.354 51.7a1.108 1.108 0 01-1.02 1.189l-.082.003z" fill="#232323"/><path d="M38.123 57.714a1.108 1.108 0 01-1.08-.862c-.536-2.353-4.273-4.196-8.514-4.196-4.24 0-7.978 1.843-8.514 4.196a1.108 1.108 0 11-2.16-.49c.775-3.436 5.267-5.922 10.674-5.922 5.407 0 9.897 2.49 10.675 5.921a1.108 1.108 0 01-1.081 1.353zM14.515 33.242c-.047 0-.094-.003-.14-.009A16.497 16.497 0 010 16.889V9.197a5.673 5.673 0 015.663-5.67H9.94a1.108 1.108 0 010 2.215H5.663a3.455 3.455 0 00-3.447 3.455v7.689a14.275 14.275 0 0012.438 14.14 1.11 1.11 0 11-.139 2.216zM42.542 33.242a1.11 1.11 0 11-.139-2.216 14.275 14.275 0 0012.438-14.14V9.197a3.455 3.455 0 00-3.447-3.455h-4.277a1.108 1.108 0 110-2.216h4.277a5.673 5.673 0 015.663 5.671v7.689A16.496 16.496 0 0142.682 33.23c-.046.007-.093.01-.14.012z" fill="#232323"/></svg>