<svg width="77" height="77" fill="none" xmlns="http://www.w3.org/2000/svg"><g clip-path="url(#clip0)" fill="#232323"><path d="M47.163 25.713H34.914a1.128 1.128 0 110-2.256h12.249a1.128 1.128 0 110 2.256zM59.412 19.923H34.914a1.128 1.128 0 110-2.255h24.498a1.128 1.128 0 110 2.255zM47.163 44.615H34.914a1.128 1.128 0 110-2.256h12.249a1.128 1.128 0 110 2.256zM59.412 38.825H34.914a1.128 1.128 0 110-2.256h24.498a1.128 1.128 0 110 2.256zM47.163 63.517H34.914a1.128 1.128 0 110-2.256h12.249a1.128 1.128 0 110 2.256zM59.412 57.727H34.914a1.128 1.128 0 110-2.255h24.498a1.128 1.128 0 110 2.255zM48.252 10.625H28.746a3.366 3.366 0 01-3.362-3.362v-3.9A3.366 3.366 0 0128.746 0h19.506a3.366 3.366 0 013.363 3.362v3.901a3.366 3.366 0 01-3.363 3.362zm-19.506-8.37c-.61 0-1.106.497-1.106 1.107v3.901c0 .61.496 1.106 1.106 1.106h19.506c.61 0 1.107-.496 1.107-1.106v-3.9c0-.61-.497-1.107-1.107-1.107H28.746zM24.5 27.225h-5.013a3.032 3.032 0 01-3.028-3.028v-5.013a3.032 3.032 0 013.028-3.028H24.5a3.032 3.032 0 013.029 3.028v5.013a3.032 3.032 0 01-3.029 3.028zm-5.013-8.813a.773.773 0 00-.772.772v5.013c0 .426.346.772.772.772H24.5a.773.773 0 00.773-.772v-5.013a.773.773 0 00-.773-.772h-5.013zM24.5 46.127h-5.013A3.032 3.032 0 0116.46 43.1v-5.013a3.032 3.032 0 013.028-3.028H24.5a3.032 3.032 0 013.029 3.028v5.013a3.032 3.032 0 01-3.029 3.028zm-5.013-8.814a.773.773 0 00-.772.773v5.013c0 .426.346.772.772.772H24.5a.773.773 0 00.773-.772v-5.013a.773.773 0 00-.773-.773h-5.013zM24.5 65.03h-5.013A3.032 3.032 0 0116.46 62v-5.013a3.032 3.032 0 013.028-3.028H24.5a3.032 3.032 0 013.029 3.028v5.013A3.032 3.032 0 0124.5 65.03zm-5.013-8.814a.773.773 0 00-.772.773V62c0 .426.346.773.772.773H24.5a.773.773 0 00.773-.773V56.99a.773.773 0 00-.773-.773h-5.013z"/><path d="M62.495 77h-47.99a4.892 4.892 0 01-4.887-4.886V9.07a4.892 4.892 0 014.886-4.886h6.76a1.128 1.128 0 110 2.255h-6.76c-1.45 0-2.63 1.18-2.63 2.63v63.043c0 1.45 1.18 2.63 2.63 2.63h47.99c1.451 0 2.63-1.18 2.63-2.63V9.071c0-1.45-1.18-2.63-2.63-2.63h-6.759a1.128 1.128 0 110-2.256h6.76A4.892 4.892 0 0167.38 9.07v63.042A4.892 4.892 0 0162.495 77z"/></g><defs><clipPath id="clip0"><path fill="#fff" d="M0 0h77v77H0z"/></clipPath></defs></svg>