<svg width="45" height="45" fill="none" xmlns="http://www.w3.org/2000/svg"><path d="M32.819 0H12.18C5.464 0 0 5.464 0 12.181V32.82C0 39.536 5.464 45 12.181 45H32.82C39.536 45 45 39.537 45 32.82V12.181C45 5.464 39.537 0 32.82 0zm9.543 32.82c0 5.26-4.281 9.542-9.543 9.542H12.18c-5.262 0-9.543-4.281-9.543-9.543V12.181c0-5.262 4.281-9.543 9.543-9.543H32.82c5.262 0 9.543 4.281 9.543 9.543V32.82z" fill="#fff"/><path d="M22.5 10.196c-6.785 0-12.304 5.52-12.304 12.304 0 6.785 5.52 12.304 12.304 12.304 6.785 0 12.304-5.52 12.304-12.304 0-6.785-5.52-12.304-12.304-12.304zm0 21.97c-5.33 0-9.666-4.336-9.666-9.666s4.336-9.666 9.666-9.666 9.666 4.336 9.666 9.666-4.336 9.666-9.666 9.666zM35.099 5.826a3.64 3.64 0 00-3.636 3.636 3.64 3.64 0 003.636 3.636 3.64 3.64 0 003.636-3.636 3.64 3.64 0 00-3.636-3.636zm0 4.633a.999.999 0 11.998-.998 1 1 0 01-.998.998z" fill="#fff"/></svg>