<svg width="123" height="123" viewBox="0 0 123 123" fill="none" xmlns="http://www.w3.org/2000/svg">
<path d="M4.1 0H0V123H123V118.9H4.1V0Z" fill="url(#paint0_linear)"/>
<path d="M8.2002 114.8H28.7002V75.8501C28.7002 70.1893 24.111 65.6001 18.4502 65.6001C12.7894 65.6001 8.2002 70.1893 8.2002 75.8501V114.8ZM12.3002 75.8501C12.3002 72.4535 15.0536 69.7001 18.4502 69.7001C21.8468 69.7001 24.6002 72.4535 24.6002 75.8501V88.1501H12.3002V75.8501ZM12.3002 92.2501H24.6002V100.45H12.3002V92.2501ZM12.3002 104.55H24.6002V110.7H12.3002V104.55Z" fill="url(#paint1_linear)"/>
<path d="M36.9004 59.4502V114.8H57.4004V59.4502C57.4004 53.7894 52.8112 49.2002 47.1504 49.2002C41.4896 49.2002 36.9004 53.7894 36.9004 59.4502ZM53.3004 110.7H41.0004V104.55H53.3004V110.7ZM53.3004 100.45H41.0004V92.2502H53.3004V100.45ZM53.3004 59.4502V88.1502H41.0004V59.4502C41.0004 56.0536 43.7538 53.3002 47.1504 53.3002C50.547 53.3002 53.3004 56.0536 53.3004 59.4502Z" fill="url(#paint2_linear)"/>
<path d="M65.6006 30.75V114.8H86.1006V30.75C86.1006 25.0892 81.5114 20.5 75.8506 20.5C70.1898 20.5 65.6006 25.0892 65.6006 30.75ZM69.7006 30.75C69.7006 27.3534 72.454 24.6 75.8506 24.6C79.2472 24.6 82.0006 27.3534 82.0006 30.75V88.15H69.7006V30.75ZM69.7006 92.25H82.0006V100.45H69.7006V92.25ZM69.7006 104.55H82.0006V110.7H69.7006V104.55Z" fill="url(#paint3_linear)"/>
<path d="M104.55 32.8C98.8918 32.8067 94.3065 37.392 94.2998 43.05V114.8H114.8V43.05C114.793 37.392 110.208 32.8067 104.55 32.8ZM110.7 110.7H98.3998V104.55H110.7V110.7ZM110.7 100.45H98.3998V92.25H110.7V100.45ZM110.7 88.15H98.3998V43.05C98.3998 39.6535 101.153 36.9 104.55 36.9C107.946 36.9 110.7 39.6535 110.7 43.05V88.15Z" fill="url(#paint4_linear)"/>
<path d="M35.2742 32.3757C34.4736 31.5755 33.176 31.5755 32.3755 32.3757L10.8505 53.9007C10.0361 54.6872 10.0135 55.9851 10.8 56.7995C11.5864 57.6138 12.8843 57.6364 13.6987 56.8499C13.7158 56.8335 13.7325 56.8166 13.7492 56.7995L33.8248 36.7238L40.5755 43.4745C41.376 44.2747 42.6736 44.2747 43.4742 43.4745L58.8492 28.0994C59.6497 27.2987 59.6494 26.0008 58.8486 25.2002C58.4643 24.8161 57.9433 24.6001 57.3998 24.6001H43.0498C41.9177 24.6001 40.9998 25.518 40.9998 26.6501C40.9998 27.7822 41.9177 28.7001 43.0498 28.7001H52.4511L42.0248 39.1264L35.2742 32.3757Z" fill="url(#paint5_linear)"/>
<path d="M77.8998 14.3501V6.1501C77.8998 5.01799 76.9819 4.1001 75.8498 4.1001C74.7177 4.1001 73.7998 5.01799 73.7998 6.1501V14.3501C73.7998 15.4822 74.7177 16.4001 75.8498 16.4001C76.9819 16.4001 77.8998 15.4822 77.8998 14.3501Z" fill="url(#paint6_linear)"/>
<path d="M65.3823 5.23417C64.8839 4.21762 63.656 3.79737 62.6394 4.29552C61.6229 4.79393 61.2026 6.02188 61.7008 7.03842C61.7054 7.0479 61.71 7.05738 61.7149 7.06661L65.8149 15.2666C66.3133 16.2832 67.5412 16.7034 68.5578 16.2053C69.5743 15.7068 69.9946 14.4789 69.4964 13.4624C69.4918 13.4529 69.4872 13.4434 69.4823 13.4342L65.3823 5.23417Z" fill="url(#paint7_linear)"/>
<path d="M84.0494 16.4C84.8263 16.4002 85.5369 15.9613 85.8841 15.2663L89.9841 7.06631C90.4979 6.05745 90.0969 4.8231 89.088 4.30906C88.0791 3.79502 86.8448 4.19631 86.3308 5.20517C86.3259 5.21465 86.3213 5.22387 86.3167 5.23335L82.2167 13.4334C81.7106 14.4461 82.1213 15.6773 83.134 16.1834C83.4182 16.3256 83.7316 16.3997 84.0494 16.4Z" fill="url(#paint8_linear)"/>
<defs>
<linearGradient id="paint0_linear" x1="-4.8052" y1="61.5" x2="127.346" y2="61.5" gradientUnits="userSpaceOnUse">
<stop stop-color="#2872E1"/>
<stop offset="1" stop-color="#2B16CC"/>
</linearGradient>
<linearGradient id="paint1_linear" x1="-4.805" y1="90.2001" x2="127.346" y2="90.2001" gradientUnits="userSpaceOnUse">
<stop stop-color="#2A69E3"/>
<stop offset="1" stop-color="#2B16CC"/>
</linearGradient>
<linearGradient id="paint2_linear" x1="-4.8048" y1="82.0002" x2="127.346" y2="82.0002" gradientUnits="userSpaceOnUse">
<stop stop-color="#3971FF"/>
<stop offset="1" stop-color="#2816B3"/>
</linearGradient>
<linearGradient id="paint3_linear" x1="-4.80459" y1="67.65" x2="127.347" y2="67.65" gradientUnits="userSpaceOnUse">
<stop stop-color="#2C76E6"/>
<stop offset="1" stop-color="#2C17CD"/>
</linearGradient>
<linearGradient id="paint4_linear" x1="-4.8054" y1="73.8001" x2="127.346" y2="73.8001" gradientUnits="userSpaceOnUse">
<stop stop-color="#3F2AE3"/>
<stop offset="1" stop-color="#2E1AD1"/>
</linearGradient>
<linearGradient id="paint5_linear" x1="-4.80539" y1="41.0128" x2="127.346" y2="41.0128" gradientUnits="userSpaceOnUse">
<stop stop-color="#2B6BE6"/>
<stop offset="1" stop-color="#2A15CB"/>
</linearGradient>
<linearGradient id="paint6_linear" x1="-4.80537" y1="10.2501" x2="127.346" y2="10.2501" gradientUnits="userSpaceOnUse">
<stop stop-color="#336CFF"/>
<stop offset="1" stop-color="#2B16CC"/>
</linearGradient>
<linearGradient id="paint7_linear" x1="-4.80344" y1="10.2505" x2="127.346" y2="10.2505" gradientUnits="userSpaceOnUse">
<stop stop-color="#2B75E5"/>
<stop offset="1" stop-color="#2C17CD"/>
</linearGradient>
<linearGradient id="paint8_linear" x1="-4.80382" y1="10.2428" x2="127.345" y2="10.2428" gradientUnits="userSpaceOnUse">
<stop stop-color="#3290FF"/>
<stop offset="1" stop-color="#2A15C6"/>
</linearGradient>
</defs>
</svg>
