<svg width="38" height="40" fill="none" xmlns="http://www.w3.org/2000/svg"><path d="M37.176 11.313c.251-.669-.017-1.466-.133-2.135-.172-.994-.161-2.176-.497-3.128-.193-.547-.61-.774-1.151-.874-.985-.182-1.995-.258-2.984-.428a82.32 82.32 0 01-5.73-1.195c-2.088-.514-4.12-1.212-6.197-1.762-1.504-.398-3.096-.433-4.357.5-.33-1.464-1.132-2.631-3.05-2.2-2.11.473-4.298 1.814-5.624 3.519C6.65 4.642 5.81 6.466 6.267 7.814c-1.504.716-3.042 1.437-4.46 2.294-1.384.836-1.148 2.23-.895 3.634.132.733.272 1.551.594 2.228.194.409.468.648.81.81a517.058 517.058 0 001.835 12.041l.477 2.912c.136.831.142 1.884.611 2.609.379.583 1.014.787 1.65.976 1.035.308 2.064.634 3.093.963a.482.482 0 00.471-.079c.083.134.186.257.317.367.598.501 1.524.72 2.248.963.686.232 1.868.836 2.548.323a.96.96 0 00.093-.081c1.246.43 2.499.812 3.774 1.16 1.31.356 2.72.933 4.075 1.056 1.27.116 2.3-.79 3.278-1.476a70.95 70.95 0 003.287-2.449c2.165-1.71 4.364-3.513 6.25-5.534.9-.964.75-2.104.74-3.348a242.954 242.954 0 00-.592-14.949c.304-.267.572-.565.705-.921zM27.51 5.008c2.293.52 4.602.933 6.924 1.33a284.448 284.448 0 01-6.69 5.425c-1.188.937-2.371 1.884-3.588 2.783-.768.567-1.362.714-2.282.495-.77-.183-1.535-.393-2.302-.592-1.545-.401-3.091-.8-4.641-1.177.223-.147.45-.281.635-.411l1.28-.9c.094.198.209.39.353.572.631.798 1.584 1.034 2.563.87 2.357-.395 4.667-2.393 6.128-4.193.752-.926 1.903-2.823 1.62-4.202zm-10.949 6.056c-.762.505-1.525 1.009-2.286 1.516-.193.13-.387.259-.567.4a108.374 108.374 0 00-4.005-.868c.124-.119.285-.226.483-.351.517-.325 1.038-.641 1.545-.98.88-.588 1.762-1.17 2.652-1.742.548.444 1.408.534 2.076.477-.004.52.008 1.045.102 1.548zm-2.613 3.37c.024-.169.093-.32.189-.46 2.293.556 4.575 1.156 6.848 1.74.667.17 1.256.315 1.83.3.033 1.454-.003 2.946.106 4.402-.28-.05-.56-.14-.82-.208-.876-.227-1.75-.463-2.622-.705-1.737-.48-3.46-1.006-5.203-1.46a35.484 35.484 0 01-.01-.103l-.19-1.884c-.052-.51-.2-1.104-.128-1.622zm11.366-9.692c.408.036.838.115.939.545.086.37-.081.84-.201 1.19-.29.85-.814 1.608-1.41 2.27-1.072 1.191-2.413 2.348-3.862 3.05-.828.4-1.962.795-2.721.073-.67-.637-.739-1.64-.735-2.525a3.992 3.992 0 001.93-1.324c.1.515.201 1.03.303 1.544.094.482.812.273.731-.202l-.278-1.644c.636-.131 1.308-.078 1.94.041.428.148.631-.565.188-.683-.677-.18-1.322-.187-1.989-.13a9.275 9.275 0 00-.252-.002c.097-.231.17-.47.203-.71a.632.632 0 00.163-.057c1.535-.797 3.263-1.594 5.05-1.436zm-2.355-.93c-1.07.27-2.15.709-3.048 1.334-.025-.044-.05-.087-.08-.129a1.93 1.93 0 00-.128-.158c.828-.403 1.656-.818 2.442-1.294.272.082.542.166.814.247zm-6.393-.446c1.227-1.063 2.96-.606 4.35-.175l.116.036c-.643.368-1.27.77-1.892 1.168-.674-.418-1.567-.617-2.264-.519-.194.028-.373.08-.542.148a13.53 13.53 0 00-.032-.527.573.573 0 00.264-.131zm2.369 2.4a.338.338 0 00.04.048c.204.923-1.347 2.166-2.079 2.412-.626.21-1.765.38-1.997-.482-.136-.504.228-1.34.504-1.743.793-1.157 2.674-1.536 3.532-.236zM8.436 4.206c.991-1.195 2.38-2.037 3.814-2.596.786-.306 1.93-.813 2.554.017.538.713.826 1.843.954 2.733a3.208 3.208 0 00-.381.35 3.19 3.19 0 00-.221.17 6.142 6.142 0 00-.657-1.121c-.288-.382-.852-.066-.646.377.184.395.344.794.478 1.204-.44.04-.88.12-1.311.184-.552.083-.329.96.234.85.307-.059.62-.106.93-.158-.214.48-.365 1.032-.359 1.545-1.714.514-3.398.904-5.199.527-2.235-.468-1.198-2.865-.19-4.082zm-5.003 6.238c1.06-.668 2.122-1.33 3.188-1.988.155.189.352.36.596.506.937.56 2.305.612 3.366.604.546-.004 1.102-.05 1.65-.143-.277.154-.554.309-.832.462-.834.46-1.887.898-2.573 1.568-.14.135-.24.281-.312.434a62.845 62.845 0 00-6.12-.815c.33-.256.758-.45 1.037-.628zm-1.246 3.272c-.119-.56-.369-1.331-.267-1.927a66.23 66.23 0 016.429.917c-.005.212.008.43.02.652.073 1.211.159 2.422.242 3.633a58.86 58.86 0 01-3.735-.765c-.495-.119-1.639-.23-2.039-.576-.43-.372-.538-1.403-.65-1.934zm5.49 20.666c-.352-.118-.878-.208-1.178-.44-.422-.328-.438-.854-.525-1.328-.336-1.818-.66-3.637-.99-5.455A447.03 447.03 0 003.01 17.012a66.18 66.18 0 005.535 1.123.635.635 0 00.149.005c.305 4.261.68 8.517 1.06 12.773.102 1.145.208 2.29.314 3.436.024.266.038.542.07.814-.822-.256-1.646-.508-2.462-.78zm7.15 2.578c-.144.069-.781-.237-.914-.28-.736-.242-2.003-.482-2.477-1.111-.297-.393-.261-1.087-.313-1.565a405.781 405.781 0 01-1.306-14.101c-.171-2.282-.433-4.6-.442-6.89 0-.037 0-.072.002-.106 1.234.248 2.464.521 3.69.81-.05.102-.096.209-.126.328-.2.8.018 1.72.099 2.524l.326 3.254c.413 4.106.83 8.212 1.254 12.318.099.956.192 1.914.259 2.874.035.505.078 1.017.08 1.524.001.233.063.326-.132.42zm8.79 1.832a2.2 2.2 0 01-.492-.042c-.867-.172-1.726-.412-2.586-.621-1.524-.37-3.04-.718-4.58-.993.048-.308.02-.643.01-.936a62.597 62.597 0 00-.241-3.553c-.208-2.278-.438-4.554-.668-6.83l-.688-6.82c1.678.661 3.395 1.208 5.12 1.735 1.074.328 2.396.938 3.622.984.305 5.695.571 11.37.502 17.076zm12.142-9.663c-.131.432-.56.758-.866 1.064a63.5 63.5 0 01-9.623 7.912c-.224.15-.435.286-.647.398.189-5.588-.015-11.24-.87-16.767a.375.375 0 00.071-.063c.194-.034.383-.088.566-.166 3.38-1.44 6.204-4.363 8.969-6.696l1.965-1.66c.184 3.179.32 6.36.392 9.542.043 1.842.06 3.683.07 5.525.002.273.056.64-.027.911zm.267-18.448c-.108.63-1.234 1.292-1.687 1.678l-1.985 1.692c-2.416 2.06-4.797 4.198-7.565 5.783-.274.157-.574.354-.88.484-.068-1.467-.281-2.952-.416-4.406a3 3 0 00.882-.424c1.295-.888 2.523-1.902 3.763-2.866 2.44-1.898 4.82-3.877 7.17-5.886.01.058.021.127.037.212.075.399.16.796.239 1.193.08.398.162.795.234 1.194.07.387.275.951.208 1.346z" fill="#FFB931"/></svg>