<svg width="71" height="77" viewBox="0 0 71 77" fill="none" xmlns="http://www.w3.org/2000/svg">
<path d="M70.4898 21.777C70.9727 20.4902 70.4566 18.955 70.2337 17.6684C69.9019 15.7536 69.9219 13.4791 69.2757 11.6452C68.905 10.5936 68.1001 10.1564 67.0598 9.96418C65.1639 9.61393 63.2208 9.46624 61.3169 9.13899C57.6149 8.50269 53.935 7.73675 50.2877 6.83908C46.266 5.84906 42.3548 4.50697 38.3568 3.44853C35.4622 2.68229 32.3973 2.61491 29.9686 4.40952C29.3337 1.59256 27.791 -0.654874 24.0978 0.174528C20.0374 1.08634 15.824 3.66689 13.2721 6.94886C11.7267 8.93642 10.1082 12.447 10.9882 15.0412C8.09375 16.4195 5.13376 17.8081 2.40192 19.4588C-0.260737 21.0678 0.193441 23.7493 0.680706 26.4533C0.934866 27.8638 1.20467 29.4394 1.82382 30.743C2.19709 31.529 2.72451 31.9896 3.38472 32.303C4.46708 40.0456 5.65096 47.7652 6.91544 55.4812C7.22163 57.3492 7.52783 59.2173 7.83387 61.0855C8.09615 62.6861 8.10683 64.7121 9.01098 66.1073C9.73902 67.2309 10.9623 67.6229 12.1859 67.9866C14.1791 68.579 16.1587 69.2083 18.1398 69.8401C18.5111 69.9586 18.82 69.8746 19.047 69.6893C19.2065 69.9459 19.4048 70.1842 19.6576 70.3961C20.808 71.3604 22.5902 71.78 23.9837 72.2498C25.3056 72.6956 27.5803 73.8589 28.8896 72.8697C28.9542 72.8209 29.0132 72.7688 29.0682 72.7148C31.4677 73.5415 33.8788 74.2783 36.3345 74.9469C38.8562 75.6335 41.5688 76.7435 44.1787 76.9808C46.6222 77.2031 48.6042 75.4584 50.4874 74.1402C52.6427 72.6315 54.751 71.0566 56.8154 69.426C60.9827 66.1342 65.2161 62.6619 68.8456 58.7728C70.5788 56.9156 70.2916 54.7218 70.2701 52.3269C70.2432 49.3358 70.1859 46.3448 70.1028 43.3547C69.9194 36.7464 69.593 30.1452 69.1297 23.5507C69.7171 23.036 70.2323 22.463 70.4898 21.777ZM51.8817 9.6404C56.2958 10.642 60.7415 11.4355 65.2099 12.1994C60.9748 15.752 56.6739 19.2206 52.3329 22.6434C50.0463 24.4465 47.7681 26.2707 45.4254 28.0006C43.9473 29.0923 42.8043 29.3751 41.0328 28.9541C39.5497 28.6016 38.0769 28.1978 36.6016 27.8146C33.6261 27.0418 30.6499 26.2748 27.6664 25.5482C28.0973 25.2653 28.5322 25.0076 28.8893 24.7566C29.7104 24.1794 30.5314 23.602 31.3525 23.0247C31.5337 23.4067 31.7554 23.7756 32.0329 24.1261C33.248 25.6618 35.0826 26.117 36.9676 25.801C41.5037 25.0407 45.95 21.194 48.7629 17.7293C50.21 15.9469 52.4258 12.2954 51.8817 9.6404ZM30.8057 21.2973C29.3386 22.27 27.8693 23.2396 26.4054 24.2168C26.0328 24.4659 25.6599 24.7148 25.3134 24.9855C22.7514 24.3833 20.1826 23.8189 17.6029 23.3148C17.8425 23.0869 18.1509 22.8797 18.5337 22.6391C19.5276 22.0142 20.5313 21.4056 21.5072 20.7529C23.2 19.6206 24.8982 18.5 26.6116 17.3999C27.6664 18.2554 29.3231 18.4288 30.6091 18.3185C30.6007 19.3206 30.6248 20.3304 30.8057 21.2973ZM25.7757 27.7862C25.8215 27.4606 25.9534 27.1678 26.1379 26.8986C30.5535 27.9695 34.9462 29.1245 39.3202 30.2478C40.6048 30.5777 41.7382 30.856 42.8455 30.8269C42.907 33.626 42.8375 36.4979 43.0476 39.3013C42.5076 39.2041 41.9702 39.0297 41.4711 38.9002C39.7839 38.463 38.1014 38.0085 36.4216 37.5437C33.0784 36.6188 29.7621 35.6068 26.4059 34.7317C26.3993 34.6659 26.3926 34.6004 26.386 34.5347L26.0201 30.9084C25.9209 29.9243 25.6357 28.783 25.7757 27.7862ZM47.6539 9.12862C48.4394 9.19825 49.2679 9.34939 49.4618 10.1777C49.6284 10.8895 49.3058 11.7929 49.075 12.4691C48.5169 14.1044 47.5079 15.5628 46.3601 16.8387C44.2977 19.1314 41.7152 21.3575 38.9272 22.7081C37.3323 23.4808 35.149 24.2391 33.6884 22.8489C32.4 21.6227 32.2663 19.6934 32.274 17.9889C33.7297 17.5315 35.0293 16.6483 35.9881 15.4406C36.1825 16.4311 36.3769 17.4216 36.5715 18.4121C36.7539 19.3409 38.135 18.9387 37.9801 18.0238C37.8016 16.9688 37.6232 15.9138 37.4445 14.8588C38.6681 14.606 39.9622 14.7096 41.1771 14.9379C42.0032 15.2235 42.3937 13.8497 41.5397 13.6226C40.2376 13.2762 38.9954 13.263 37.7118 13.3732C37.5509 13.369 37.3893 13.3686 37.2277 13.3687C37.4129 12.9237 37.5534 12.4629 37.6175 12.0021C37.7191 11.9806 37.8234 11.9484 37.9316 11.8923C40.8855 10.3578 44.2125 8.82318 47.6539 9.12862ZM43.1215 7.33777C41.0611 7.85722 38.9821 8.70196 37.2538 9.90508C37.2056 9.82192 37.1576 9.7386 37.0994 9.65769C37.024 9.55272 36.9415 9.45135 36.8538 9.353C38.4461 8.57759 40.0416 7.77811 41.5547 6.86239C42.077 7.02015 42.5981 7.18302 43.1215 7.33777ZM30.8138 6.47904C33.1763 4.43253 36.5114 5.31322 39.1865 6.14322C39.2614 6.16638 39.3366 6.18834 39.4115 6.2115C38.1736 6.92119 36.9657 7.69314 35.7696 8.46119C34.4722 7.65509 32.7522 7.27325 31.4122 7.46154C31.0371 7.51433 30.6923 7.61479 30.3684 7.74698C30.3542 7.41251 30.3335 7.07263 30.3058 6.7317C30.4789 6.69605 30.652 6.6192 30.8138 6.47904ZM35.3747 11.098C35.3983 11.1338 35.4243 11.1648 35.4516 11.1927C35.8438 12.9688 32.8591 15.362 31.4507 15.8357C30.2458 16.241 28.0522 16.5659 27.6048 14.9075C27.3428 13.937 28.0445 12.3274 28.5757 11.5525C30.1028 9.32428 33.7228 8.59563 35.3747 11.098ZM15.1646 8.09875C17.0725 5.79717 19.7449 4.17792 22.5061 3.10127C24.0195 2.51114 26.2197 1.53646 27.423 3.13346C28.4578 4.50712 29.012 6.68192 29.2582 8.39486C28.9977 8.59744 28.753 8.82167 28.5252 9.06696C28.3801 9.16907 28.2382 9.27871 28.1 9.39526C27.7486 8.63759 27.3407 7.9079 26.8355 7.23776C26.2814 6.5025 25.1946 7.11158 25.5923 7.96445C25.9467 8.72467 26.2547 9.49121 26.5122 10.2811C25.6664 10.3593 24.8173 10.5127 23.9877 10.6363C22.926 10.7945 23.3558 12.4846 24.4391 12.2734C25.0301 12.1582 25.6312 12.0683 26.2293 11.9671C25.8165 12.8905 25.5256 13.9537 25.5387 14.9418C22.2378 15.9318 18.9973 16.6823 15.5307 15.9565C11.2268 15.0558 13.2237 10.4402 15.1646 8.09875ZM5.5341 20.1076C7.57385 18.8201 9.61916 17.5452 11.6711 16.2788C11.9696 16.6433 12.3474 16.9719 12.8175 17.253C14.6211 18.3313 17.2546 18.4313 19.2965 18.416C20.3488 18.408 21.4186 18.3184 22.4735 18.1402C21.9396 18.4373 21.4068 18.7359 20.8714 19.0309C19.2667 19.9154 17.24 20.7592 15.9181 22.048C15.6503 22.3093 15.4576 22.5898 15.3191 22.8851C11.4244 22.1825 7.50181 21.6348 3.53767 21.3158C4.17172 20.8222 4.99571 20.4474 5.5341 20.1076ZM3.13463 26.4061C2.90618 25.3284 2.42493 23.8424 2.62134 22.6967C6.77212 23.0671 10.8958 23.685 14.9965 24.4615C14.9866 24.8695 15.0116 25.2899 15.037 25.7153C15.1767 28.0474 15.3414 30.3785 15.5018 32.7092C13.09 32.2922 10.6907 31.8099 8.31061 31.2375C7.35864 31.0086 5.15692 30.7932 4.38647 30.1273C3.55903 29.4125 3.35119 27.4277 3.13463 26.4061ZM13.7029 66.1867C13.0255 65.9608 12.0122 65.7877 11.4348 65.3397C10.6224 64.7094 10.5928 63.6962 10.424 62.7831C9.77767 59.285 9.1534 55.7827 8.51815 52.2827C7.33277 45.7527 6.05686 39.2465 4.72109 32.7471C8.23948 33.6177 11.7973 34.3428 15.3767 34.9099C15.4767 34.9257 15.5715 34.9263 15.6629 34.9193C16.2493 43.1225 16.972 51.3154 17.7023 59.5068C17.8989 61.7123 18.1039 63.917 18.3077 66.1217C18.3549 66.6329 18.3809 67.1656 18.4421 67.688C16.8597 67.1952 15.2747 66.7108 13.7029 66.1867ZM27.4673 71.1488C27.1897 71.2827 25.963 70.6936 25.707 70.6098C24.2897 70.1454 21.8519 69.6825 20.9389 68.472C20.3682 67.7154 20.4361 66.3791 20.3366 65.4605C20.217 64.3583 20.0994 63.2557 19.9827 62.1532C19.1423 54.2176 18.4195 46.2738 17.8225 38.3161C17.4928 33.922 16.9895 29.4602 16.9714 25.0518C16.9711 24.9808 16.9731 24.9139 16.9756 24.8479C19.3509 25.3263 21.7185 25.8511 24.0793 26.407C23.9814 26.6032 23.895 26.809 23.8374 27.0386C23.4507 28.5786 23.871 30.3503 24.0264 31.8974C24.236 33.9853 24.4457 36.073 24.6552 38.1609C25.4488 46.066 26.2532 53.9697 27.0686 61.8726C27.2587 63.7143 27.4389 65.5576 27.5667 67.4049C27.634 68.3777 27.717 69.364 27.7215 70.34C27.7233 70.788 27.8427 70.9678 27.4673 71.1488ZM44.3864 74.6765C44.0892 74.685 43.777 74.6609 43.4416 74.5946C41.7708 74.2642 40.1174 73.8022 38.4627 73.3997C35.5281 72.6861 32.6096 72.0185 29.6444 71.4883C29.7381 70.896 29.685 70.2516 29.6657 69.6872C29.5881 67.4028 29.4081 65.1237 29.2007 62.8479C28.8011 58.4621 28.3587 54.0801 27.9165 49.6985C27.475 45.3229 27.0335 40.9473 26.5919 36.5717C29.8208 37.8443 33.127 38.8967 36.4471 39.9111C38.515 40.5427 41.0589 41.7168 43.42 41.8054C44.0076 52.7675 44.5192 63.6941 44.3864 74.6765ZM67.7616 56.0757C67.5089 56.9069 66.6837 57.5341 66.0942 58.1226C64.947 59.2675 63.7785 60.3914 62.5896 61.493C57.9045 65.8346 52.8746 69.7953 47.5691 73.3523C47.1381 73.6414 46.7316 73.9049 46.3243 74.1199C46.6878 63.3625 46.2955 52.4843 44.6479 41.8433C44.698 41.8089 44.7455 41.7701 44.7869 41.7226C45.1594 41.6562 45.5237 41.5534 45.8762 41.4033C52.3839 38.6302 57.8184 33.0046 63.1408 28.512C64.4018 27.4475 65.6629 26.383 66.924 25.3186C67.2773 31.4365 67.5391 37.5604 67.6792 43.6867C67.7602 47.2309 67.7934 50.7756 67.8145 54.3206C67.8177 54.8462 67.9199 55.5549 67.7616 56.0757ZM68.2742 20.5635C68.0676 21.7758 65.8991 23.0498 65.0278 23.7929C63.7543 24.8787 62.4806 25.9644 61.2071 27.0502C56.5561 31.0154 51.9718 35.1303 46.6441 38.1822C46.1171 38.4841 45.5397 38.8645 44.9481 39.1139C44.8185 36.2896 44.4085 33.4309 44.1495 30.6322C44.704 30.4744 45.2642 30.2159 45.8461 29.8171C48.3399 28.1077 50.7041 26.1555 53.0901 24.2994C57.7878 20.6451 62.3693 16.8357 66.8943 12.9694C66.9134 13.0798 66.9335 13.2126 66.9645 13.3768C67.1095 14.1438 67.2707 14.9081 67.4238 15.6736C67.5769 16.4392 67.7358 17.2041 67.8751 17.9725C68.01 18.7168 68.4039 19.8026 68.2742 20.5635Z" fill="#FFB931"/>
</svg>
